<mxfile host="app.diagrams.net" modified="2024-02-28T18:24:23.628Z" agent="Mozilla/5.0 (Macintosh; Intel Mac OS X 10_15_7) AppleWebKit/537.36 (KHTML, like Gecko) Chrome/121.0.0.0 Safari/537.36" version="23.1.8" etag="-xPDS8gXWA9UAUkDmLfa" type="github">
  <diagram name="‫עמוד-1‬" id="8iiC8M0ED-ne6ttxLf0y">
    <mxGraphModel>
      <root>
        <mxCell id="0" />
        <mxCell id="1" parent="0" />
      </root>
    </mxGraphModel>
  </diagram>
</mxfile>
